{"title":"UEFA.Euro.2012.Quarter.Final.Czech.Republic.vs.Portugal.720p.HDT","uid":7377429,"size":2107120958,"categoryP":"video","categoryS":"hd___tv_shows","magnet":"?xt=urn:btih:a36297ce4d4e95179e65000ecef2848b015f4fd4&amp;dn=UEFA.Euro.2012.Quarter.Final.Czech.Republic.vs.Portugal.720p.HDT&amp;tr=udp%3A%2F%2Ftracker.openbittorrent.com%3A80&amp;tr=udp%3A%2F%2Fopen.demonii.com%3A1337&amp;tr=udp%3A%2F%2Ftracker.coppersurfer.tk%3A6969&amp;tr=udp%3A%2F%2Fexodus.desync.com%3A6969","seeders":0,"leechers":0,"uploader":"DibyaTPB","files":3,"time":1340397292,"description":"PublicHD - High-Definition Bittorrent Community \n   \n &lt;a href=&quot; http://publichd.eu/&quot; rel=&quot;nofollow&quot; target=&quot;_NEW&quot;&gt; http://publichd.eu/&lt;/a&gt;\n\n-----------------------------------------------------\n\nUEFA.Euro.2012.Quarter.Final.Czech.Republic.vs.Portugal.720p.HDTV.x264-W4F [PublicHD]\n\n\nVideo\nID                               : 1\nFormat                           : AVC\nFormat/Info                      : Advanced Video Codec\nFormat profile                   : &lt;a class=&quot;__cf_email__&quot; href=&quot;/cdn-cgi/l/email-protection&quot; data-cfemail=&quot;0149686669414d352f30&quot;&gt;[email&amp;#160;protected]&lt;/a&gt;&lt;script cf-hash='f9e31' type=&quot;text/javascript&quot;&gt;\n/* &lt;![CDATA[ */!function(){try{var t=&quot;currentScript&quot;in document?document.currentScript:function(){for(var t=document.getElementsByTagName(&quot;script&quot;),e=t.length;e--;)if(t[e].getAttribute(&quot;cf-hash&quot;))return t[e]}();if(t&amp;&amp;t.previousSibling){var e,r,n,i,c=t.previousSibling,a=c.getAttribute(&quot;data-cfemail&quot;);if(a){for(e=&quot;&quot;,r=parseInt(a.substr(0,2),16),n=2;a.length-n;n+=2)i=parseInt(a.substr(n,2),16)^r,e+=String.fromCharCode(i);e=document.createTextNode(e),c.parentNode.replaceChild(e,c)}}}catch(u){}}();/* ]]&gt; */&lt;/script&gt;\nFormat settings, CABAC           : Yes\nFormat settings, ReFrames        : 5 frames\nCodec ID                         : V_MPEG4/ISO/AVC\nDuration                         : 1h 39mn\nBit rate                         : 2 383 Kbps\nWidth                            : 1 280 pixels\nHeight                           : 720 pixels\nDisplay aspect ratio             : 16:9\nFrame rate                       : 25.000 fps\nColor space                      : YUV\nChroma subsampling               : 4:2:0\nBit depth                        : 8 bits\nScan type                        : Progressive\nBits/(Pixel*Frame)               : 0.103\nStream size                      : 1.66 GiB (84%)\nWriting library                  : x264 core 125 r2200 999b753\n\nAudio\nID                               : 2\nFormat                           : AC-3\nFormat/Info                      : Audio Coding 3\nMode extension                   : CM (complete main)\nMuxing mode                      : Header stripping\nCodec ID                         : A_AC3\nDuration                         : 1h 39mn\nBit rate mode                    : Constant\nBit rate                         : 384 Kbps\nChannel(s)                       : 6 channels\nChannel positions                : Front: L C R, Side: L R, LFE\nSampling rate                    : 48.0 KHz\nBit depth                        : 16 bits\nCompression mode                 : Lossy\nStream size                      : 273 MiB (14%)\nTitle                            : PID 5401\nLanguage                         : English\n","torrent":{"xt":"urn:btih:a36297ce4d4e95179e65000ecef2848b015f4fd4","amp;dn":"UEFA.Euro.2012.Quarter.Final.Czech.Republic.vs.Portugal.720p.HDT","amp;tr":["udp%3A%2F%2Ftracker.openbittorrent.com%3A80","udp%3A%2F%2Fopen.demonii.com%3A1337","udp%3A%2F%2Ftracker.coppersurfer.tk%3A6969","udp%3A%2F%2Fexodus.desync.com%3A6969"],"infoHash":"a36297ce4d4e95179e65000ecef2848b015f4fd4","infoHashBuffer":{"type":"Buffer","data":[163,98,151,206,77,78,149,23,158,101,0,14,206,242,132,139,1,95,79,212]},"announce":[],"urlList":[]}}